# xmcd CD database file
#
# Track frame offsets:
#	150
#	21625
#	52358
#	72220
#	82497
#	115549
#	138702
#	161401
#	181134
#	193491
#	223705
#	242480
#
# Disc length: 3482 seconds
#
# Revision: 0
# Processed by: cddbd v1.5.2PL0 Copyright (c) Steve Scherf et al.
# Submitted via: CDex 1.81
#
DISCID=bc0d980c
DTITLE=Oriental Jazzband - live in Enkhuizen
DYEAR=2004
DGENRE=Jazz
TTITLE0=Some of These Days (Shelton Brooks)
TTITLE1=Give me Your Telephone Number (Higginbotham)
TTITLE2=Fair and Square in Love (F. Waller)
TTITLE3=I Can't Afford to do it (J. Williamson)
TTITLE4=Should I Reveal (H. Brown - A. Reed)
TTITLE5=Dans les Rues D'Antibes (S. Bechet)
TTITLE6=Old Green River (Kalmer - Cooper)
TTITLE7=Redwing ( K. Mills - Carrol)
TTITLE8=Jazz me Blues (T. Delaney)
TTITLE9=Martha (Simons)
TTITLE10=Daddy's Little Girl (B. Burke - H. Gerlach)
TTITLE11=Harm goes Tomatoes (original title: K. Thomas Boogie Woogie (T. Valentine))
EXTD=YEAR: 2004
EXTT0=
EXTT1=
EXTT2=
EXTT3=
EXTT4=
EXTT5=
EXTT6=
EXTT7=
EXTT8=
EXTT9=
EXTT10=
EXTT11=
PLAYORDER=
